<?xml version="1.0" encoding="utf-8"?>
<!-- Generator: Adobe Illustrator 22.1.0, SVG Export Plug-In . SVG Version: 6.00 Build 0)  -->
<svg version="1.1" id="Layer_1" xmlns="http://www.w3.org/2000/svg" xmlns:xlink="http://www.w3.org/1999/xlink" x="0px" y="0px"
	 viewBox="0 0 80 80" style="enable-background:new 0 0 80 80;" xml:space="preserve">
<g>
	<path d="M43.1,38.9C35.6,31.8,28,24.7,20.6,17.6c-4.2-4-4.4-9-0.9-12.5c3.4-3.4,8.5-3,12.5,1c9.1,9.1,18.1,18.1,27.2,27.2
		c4.5,4.5,4.6,8.9,0.1,13.4C50.3,55.8,41.2,64.9,32,74c-3.9,3.9-8.9,4.3-12.3,0.9c-3.4-3.4-3.2-8.7,0.8-12.5
		c7.5-7.1,15.1-14.2,22.7-21.2C43.2,40.4,43.2,39.6,43.1,38.9z"/>
</g>
</svg>
