<?xml version="1.0" encoding="utf-8"?>
<!-- Generator: Adobe Illustrator 22.1.0, SVG Export Plug-In . SVG Version: 6.00 Build 0)  -->
<svg version="1.1" id="Layer_1" xmlns="http://www.w3.org/2000/svg" xmlns:xlink="http://www.w3.org/1999/xlink" x="0px" y="0px"
	 viewBox="0 0 99.3 99.3" style="enable-background:new 0 0 99.3 99.3;" xml:space="preserve">
<style type="text/css">
	.st0{fill:#626262;}
</style>
<g>
	<path class="st0" d="M49.6,78.9c-11.5,0-23,0-34.5,0c-1.9,0-3.6-0.5-4.9-1.9c-1.6-1.9-2-4-1-6.3c1-2.3,2.9-3.5,5.4-3.5
		c4.1-0.1,8.2,0,12.4,0c12.9,0,25.8,0,38.7,0c6.4,0,12.7,0,19.1,0c3.1,0,5.6,2.4,5.9,5.4c0.2,3.1-1.9,5.8-4.9,6.2
		c-0.8,0.1-1.7,0.1-2.5,0.1C72,78.9,60.8,78.9,49.6,78.9C49.6,78.9,49.6,78.9,49.6,78.9z"/>
	<path class="st0" d="M49.7,20.4c11.7,0,23.3,0,35,0c2.7,0,5.2,1.8,5.8,4.5c0.7,2.9-0.7,5.6-3.5,6.8c-0.7,0.3-1.6,0.4-2.4,0.4
		c-9.4,0-18.8,0-28.2,0c-13,0-25.9,0-38.9,0c-1.5,0-3,0-4.4-0.3c-2.8-0.6-4.6-3.4-4.3-6.2c0.4-3,2.8-5.2,5.7-5.2
		c7.3,0,14.5,0,21.8,0C40.7,20.4,45.2,20.4,49.7,20.4C49.7,20.4,49.7,20.4,49.7,20.4z"/>
	<path class="st0" d="M49.7,55.5c-11.7,0-23.4,0-35.1,0c-3.1,0-5.6-2.3-5.8-5.3c-0.3-3,1.7-5.7,4.7-6.3c0.9-0.2,1.8-0.1,2.7-0.1
		c12.1,0,24.2,0,36.4,0c10.8,0,21.5,0,32.3,0c3.1,0,5.6,2.3,5.9,5.3c0.3,3-1.7,5.7-4.6,6.3c-0.7,0.2-1.5,0.1-2.2,0.1
		C72.4,55.5,61.1,55.5,49.7,55.5z"/>
</g>
</svg>
