<?xml version="1.0" encoding="utf-8"?>
<!-- Generator: Adobe Illustrator 22.1.0, SVG Export Plug-In . SVG Version: 6.00 Build 0)  -->
<svg version="1.1" id="Layer_1" xmlns="http://www.w3.org/2000/svg" xmlns:xlink="http://www.w3.org/1999/xlink" x="0px" y="0px"
	 viewBox="0 0 80 80" style="enable-background:new 0 0 80 80;" xml:space="preserve">
<style type="text/css">
	.st0{fill:#A2DCE9;}
	.st1{fill:#FFFFFF;}
</style>
<g>
	<path class="st0" d="M40.1,1.5c1.8,2.2,3.5,4.3,5.2,6.5c4,5.2,7.8,10.6,11.2,16.3c2.7,4.6,5.2,9.2,7.1,14.2c1.7,4.4,3,9,2.8,13.8
		c-0.1,3.8-1.3,7.3-2.9,10.7c-2.2,4.6-5.3,8.4-9.5,11.3c-3,2.1-6.3,3.5-10,4c-2.4,0.4-4.8,0.4-7.2,0.1c-5-0.7-9.3-2.7-13-6.1
		c-3.5-3.2-6.1-7-7.9-11.4c-1.5-3.8-2.4-7.7-1.9-11.8c0.5-4.2,1.7-8.2,3.4-12.1c3.3-7.8,7.7-15,12.5-22c3.1-4.4,6.4-8.7,9.8-12.9
		C39.7,1.9,39.9,1.7,40.1,1.5z"/>
</g>
<g>
	<path class="st1" d="M25.7,62c0-0.8,0.3-1.4,0.9-1.9c7.8-7.8,15.6-15.6,23.4-23.4c1-1,2.5-1.1,3.5-0.3c1.1,1,1,2.4-0.3,3.7
		c-6,6.1-12.1,12.1-18.2,18.2c-1.8,1.8-3.5,3.5-5.3,5.2c-0.7,0.7-1.6,1-2.6,0.6C26.2,63.6,25.9,62.9,25.7,62z"/>
	<path class="st1" d="M47.1,54.8c-4,0-7,3.1-7,7.1c0,4,3.2,7.2,7.1,7.2c3.8-0.1,7.1-3.4,7-7.2C54.2,57.8,51.1,54.8,47.1,54.8z
		 M47.1,64.3c-1.3,0-2.5-1.2-2.4-2.5c0-1.2,1.2-2.3,2.5-2.3c1.3,0,2.5,1.2,2.4,2.5C49.5,63.2,48.4,64.3,47.1,64.3z"/>
	<path class="st1" d="M32.8,31c-3.9,0-7.1,3.2-7.1,7c0,4,3.2,7.1,7.2,7.1c4,0,7-3,7-7C39.9,34,36.9,31,32.8,31z M32.8,40.5
		c-1.3,0-2.5-1.3-2.4-2.6c0.1-1.2,1.3-2.3,2.5-2.3c1.3,0,2.4,1.3,2.4,2.6C35.2,39.4,34,40.5,32.8,40.5z"/>
</g>
</svg>
