<?xml version="1.0" encoding="utf-8"?>
<!-- Generator: Adobe Illustrator 22.1.0, SVG Export Plug-In . SVG Version: 6.00 Build 0)  -->
<svg version="1.1" id="Layer_1" xmlns="http://www.w3.org/2000/svg" xmlns:xlink="http://www.w3.org/1999/xlink" x="0px" y="0px"
	 viewBox="0 0 80 80" style="enable-background:new 0 0 80 80;" xml:space="preserve">
<style type="text/css">
	.st0{fill:#A3DCE9;}
</style>
<g>
	<path class="st0" d="M75,28.1c-2.1-2.1-4.8-3.4-7.7-3.9c-1-6.6-6.7-11.6-13.6-11.6c-2.6,0-5.1,0.7-7.2,2c-1.3-2.2-3.1-4.2-5.3-5.7
		c-3.1-2.1-6.7-3.3-10.4-3.3c-10.1,0-18.3,8.2-18.3,18.3c0,0.1,0,0.1,0,0.2c-2.8,0.5-5.4,1.8-7.5,3.8c-2.7,2.6-4.1,6.1-4.1,9.7
		c0,3.7,1.5,7.1,4.1,9.7c2.6,2.6,6.1,4,9.8,4h3.5L16,57.7l4.3,1.6l2.9-7.7h8.8l-2.3,6.1l4.3,1.6l2.9-7.7h8.8l-2.3,6.1l4.3,1.6
		l2.9-7.7h8.8l-2.3,6.1l4.3,1.6l2.9-7.7h0.7c3.7,0,7.1-1.4,9.8-4c2.7-2.6,4.1-6.1,4.1-9.7C79.1,34.2,77.6,30.8,75,28.1z M65.2,47
		H14.8c-5.1,0-9.3-4.1-9.3-9.2s4.2-9.2,9.3-9.2h2.9l-0.4-2.8c-0.1-0.6-0.2-1.2-0.2-1.7c0-7.6,6.2-13.7,13.7-13.7
		c5.7,0,10.7,3.4,12.8,8.7l1.3,3.2l2.5-2.4c1.7-1.7,4-2.6,6.4-2.6c5.1,0,9.2,4.1,9.2,9.2v2.3h2.3c5.1,0,9.3,4.1,9.3,9.2
		S70.3,47,65.2,47z"/>
	<path class="st0" d="M19.6,72.6l3.9-10.3l4.3,1.6l-3.9,10.3L19.6,72.6z"/>
	<path class="st0" d="M33.3,72.6l3.9-10.3l4.3,1.6l-3.9,10.3L33.3,72.6z"/>
	<path class="st0" d="M47.1,72.6L51,62.2l4.3,1.6l-3.9,10.3L47.1,72.6z"/>
</g>
</svg>
