<?xml version="1.0" encoding="utf-8"?>
<!-- Generator: Adobe Illustrator 22.1.0, SVG Export Plug-In . SVG Version: 6.00 Build 0)  -->
<svg version="1.1" id="Layer_1" xmlns="http://www.w3.org/2000/svg" xmlns:xlink="http://www.w3.org/1999/xlink" x="0px" y="0px"
	 viewBox="0 0 99.3 99.3" style="enable-background:new 0 0 99.3 99.3;" xml:space="preserve">
<style type="text/css">
	.st0{fill:#FFFFFF;}
</style>
<g>
	<path class="st0" d="M30,45.9l18,30c0.3,0.5,0.8,0.8,1.3,0.8c0,0,0,0,0,0c0.5,0,1.1-0.3,1.3-0.7l18.7-30c0-0.1,0.1-0.2,0.1-0.2
		c2.2-3.6,3.4-7.8,3.4-12.1c0-12.8-10.4-23.2-23.2-23.2c-12.8,0-23.2,10.4-23.2,23.2c0,4.3,1.2,8.4,3.4,12.1
		C29.9,45.7,29.9,45.8,30,45.9z M49.7,13.6c11,0,20,9,20,20c0,3.8-1.1,7.4-3.1,10.6c0,0.1-0.1,0.2-0.1,0.2L49.3,72.1L32.8,44.5
		c0-0.1-0.1-0.2-0.1-0.3c-2-3.2-3.1-6.9-3.1-10.6C29.6,22.5,38.6,13.6,49.7,13.6z"/>
	<path class="st0" d="M49.7,42.2c4.8,0,8.6-3.9,8.6-8.6S54.4,25,49.7,25S41,28.8,41,33.6S44.9,42.2,49.7,42.2z M49.7,28.1
		c3,0,5.5,2.5,5.5,5.5s-2.5,5.5-5.5,5.5c-3,0-5.5-2.5-5.5-5.5C44.2,30.6,46.6,28.1,49.7,28.1z"/>
	<path class="st0" d="M69.6,85.8H29.7c-0.9,0-1.6,0.7-1.6,1.6c0,0.9,0.7,1.6,1.6,1.6h39.9c0.9,0,1.6-0.7,1.6-1.6
		C71.2,86.5,70.5,85.8,69.6,85.8z"/>
</g>
</svg>
