<?xml version="1.0" encoding="utf-8"?>
<!-- Generator: Adobe Illustrator 22.1.0, SVG Export Plug-In . SVG Version: 6.00 Build 0)  -->
<svg version="1.1" id="Layer_1" xmlns="http://www.w3.org/2000/svg" xmlns:xlink="http://www.w3.org/1999/xlink" x="0px" y="0px"
	 viewBox="0 0 99.3 99.3" style="enable-background:new 0 0 99.3 99.3;" xml:space="preserve">
<style type="text/css">
	.st0{fill:#FFFFFF;}
</style>
<g>
	<path class="st0" d="M71.2,37.4C71.2,37.4,71.2,37.4,71.2,37.4c2.2,0,4.3-0.9,5.9-2.4c1.6-1.6,2.5-3.7,2.5-5.9
		c0-4.6-3.7-8.4-8.4-8.4c0,0,0,0,0,0c-4.6,0-8.4,3.7-8.4,8.4c0,2.2,0.9,4.3,2.4,5.9C66.9,36.6,69,37.4,71.2,37.4z M71.2,23.9
		C71.2,23.9,71.3,23.9,71.2,23.9c2.9,0,5.2,2.3,5.2,5.2c0,1.4-0.5,2.7-1.5,3.7c-1,1-2.3,1.5-3.7,1.5c0,0,0,0,0,0
		c-1.4,0-2.7-0.5-3.7-1.5c-1-1-1.5-2.3-1.5-3.7C66,26.2,68.4,23.9,71.2,23.9z"/>
	<path class="st0" d="M98.6,86.8l-16-37.5l5.5-8.7c0.1-0.1,0.1-0.2,0.1-0.3C90,37.2,91,33.6,91,30.1c0-5.3-2-10.3-5.8-14
		c-3.7-3.7-8.7-5.8-14-5.8c0,0,0,0,0,0c-10.9,0-19.8,8.9-19.8,19.8c0,3.6,1,7.2,2.9,10.2c0,0.1,0.1,0.2,0.1,0.2l3,5h-38
		c-0.6,0-1.2,0.4-1.5,1L0.7,86.8c-0.2,0.5-0.2,1.1,0.1,1.5C1.1,88.8,1.6,89,2.2,89h95c0.5,0,1-0.3,1.3-0.7
		C98.8,87.9,98.8,87.3,98.6,86.8z M57.2,38.8c-1.7-2.6-2.5-5.7-2.5-8.8c0-9.1,7.5-16.6,16.6-16.6c0,0,0,0,0,0
		c4.4,0,8.6,1.7,11.7,4.9c3.1,3.1,4.8,7.3,4.8,11.8c0,0,0,0,0,0c0,3.1-0.9,6.1-2.6,8.8c-0.1,0.1-0.1,0.2-0.1,0.3L70.9,61.9
		l-9.4-15.7c0,0,0,0,0-0.1l-4.2-7C57.3,39,57.2,38.9,57.2,38.8z M20.5,48.6h3.6c0.2,4.5,4.1,6.2,7,7.5c1.5,0.7,3.1,1.3,3.5,2.2
		c0.8,1.3,0.3,2.2-1.2,4.3c-1.4,1.9-3.1,4.3-1.9,7.4c1.8,4.8,11.2,6.1,21.6,7.1c1.9,0.2,3.5,0.3,4.5,0.5c8,1.4,10.7,5.9,11.5,8.3
		H4.6L20.5,48.6z M72.4,85.9c-0.7-2.7-3.6-9.6-14.3-11.4c-1.1-0.2-2.8-0.4-4.7-0.5c-5.7-0.6-17.6-1.7-18.9-5.1
		c-0.5-1.5,0.2-2.6,1.5-4.4c1.4-1.9,3.3-4.6,1.4-7.8c-1-1.7-3-2.6-5-3.5c-3-1.3-4.8-2.3-5-4.6h32l10.2,17.2c0.3,0.5,0.8,0.8,1.3,0.8
		c0,0,0,0,0,0c0.5,0,1.1-0.3,1.3-0.7l8.3-13.2l14.2,33.3H72.4z"/>
</g>
</svg>
