<?xml version="1.0" encoding="utf-8"?>
<!-- Generator: Adobe Illustrator 22.1.0, SVG Export Plug-In . SVG Version: 6.00 Build 0)  -->
<svg version="1.1" id="Layer_1" xmlns="http://www.w3.org/2000/svg" xmlns:xlink="http://www.w3.org/1999/xlink" x="0px" y="0px"
	 viewBox="0 0 80 80" style="enable-background:new 0 0 80 80;" xml:space="preserve">
<style type="text/css">
	.st0{fill:#626363;}
	.st1{fill:#FFFFFF;}
</style>
<circle class="st0" cx="40" cy="40" r="39.1"/>
<path class="st1" d="M24.3,40.5c0,9,7.3,16.3,16.3,16.3c3.8,0,7.3-1.4,10.1-3.6l18,18l2.5-2.6l-18-18c2.2-2.8,3.6-6.3,3.6-10.1
	c0-9-7.3-16.3-16.3-16.3S24.3,31.6,24.3,40.5z M53.2,40.5c0,7-5.7,12.7-12.7,12.7s-12.7-5.7-12.7-12.7s5.7-12.7,12.7-12.7
	S53.2,33.5,53.2,40.5z"/>
</svg>
