<?xml version="1.0" encoding="utf-8"?>
<!-- Generator: Adobe Illustrator 22.1.0, SVG Export Plug-In . SVG Version: 6.00 Build 0)  -->
<svg version="1.1" id="Layer_1" xmlns="http://www.w3.org/2000/svg" xmlns:xlink="http://www.w3.org/1999/xlink" x="0px" y="0px"
	 viewBox="0 0 80 80" style="enable-background:new 0 0 80 80;" xml:space="preserve">
<style type="text/css">
	.st0{fill:#A2DCE9;}
</style>
<g>
	<path class="st0" d="M0.8,45.8c0-2,0-3.8,0-5.8c0.5,0,1,0,1.5,0c21.6,0,43.3,0,64.9,0c3.4,0,6-2.3,6.1-5.5c0.1-3.1-2.2-5.8-5.2-6.1
		c-3.1-0.3-5.8,1.9-6.3,5.1c0,0.2,0,0.4-0.1,0.7c-1,0-1.9,0-2.9,0c-0.9,0-1.9,0-2.9,0c0-2.9,0.9-5.4,2.7-7.5
		c3.1-3.5,6.9-4.9,11.5-3.8c4.7,1.1,7.7,4.2,8.7,8.9c1.6,6.9-4,14-11,14c-22.1,0-44.3,0-66.4,0C1.3,45.8,1.1,45.8,0.8,45.8z"/>
	<path class="st0" d="M6.6,34.2c0-2,0-3.9,0-5.8c0.4,0,0.7,0,1,0c11.2,0,22.5,0,33.7,0c2.3,0,4.1-1.1,5.2-3.2c1-2,0.9-4-0.4-5.9
		c-1.4-2-3.8-2.9-6.2-2.3c-2.3,0.6-4,2.5-4.3,5c0,0.1,0,0.3,0,0.6c-1,0-1.9,0-2.9,0c-0.9,0-1.9,0-2.9,0c-0.1-1.5,0.2-2.9,0.8-4.3
		c2.1-5.3,7.8-8.3,13.2-7.1c5.7,1.3,9.5,6.3,9.2,12.1c-0.3,5.8-5.4,10.8-11.1,10.8c-11.5,0-23,0-34.5,0C7.1,34.2,6.9,34.2,6.6,34.2z
		"/>
	<path class="st0" d="M50.1,60.4c2,0,3.8,0,5.7,0c0.5,2.1,1.9,3.2,3.5,2.8c1.5-0.3,2.5-1.7,2.3-3.1c-0.1-1.5-1.4-2.6-3-2.6
		c-3.7,0-7.3,0-11,0c-9.5,0-18.9,0-28.4,0c-0.4,0-0.7,0-1.2,0c0-1.9,0-3.8,0-5.8c0.3,0,0.5,0,0.8,0c13.3,0,26.5,0,39.8,0
		c4.5,0,8.3,3.5,8.7,8c0.3,4.5-2.8,8.5-7.3,9.3c-5,0.8-9.5-2.6-10.1-7.6C50.1,61,50.1,60.7,50.1,60.4z"/>
</g>
</svg>
