<?xml version="1.0" encoding="utf-8"?>
<!-- Generator: Adobe Illustrator 22.1.0, SVG Export Plug-In . SVG Version: 6.00 Build 0)  -->
<svg version="1.1" xmlns="http://www.w3.org/2000/svg" xmlns:xlink="http://www.w3.org/1999/xlink" x="0px" y="0px"
	 viewBox="0 0 400 400" style="enable-background:new 0 0 400 400;" xml:space="preserve">
<style type="text/css">
	.st0{fill:#F2C053;}
	.st1{opacity:0.4;fill:#F2C053;}
	.st2{fill:#D2D2D1;}
	.st3{fill:#A2DCE9;}
</style>
<g id="Layer_3">
</g>
<g id="Layer_2">
	<g>
		<g>
			<circle class="st0" cx="297" cy="188.2" r="76.8"/>
			<circle class="st1" cx="297" cy="188.2" r="96.6"/>
		</g>
		<path class="st2" d="M335,232.1c0-41.6-33.3-75.3-74.6-76.2c-17.2-35.4-53.5-59.8-95.5-59.8c-54,0-98.5,40.3-105.2,92.4
			c-30,3.4-53.3,28.8-53.3,59.7c0,33.2,26.9,60,60,60c0.1,0,196.7-0.1,196.7-0.1C303.3,305.9,335,272.7,335,232.1z"/>
	</g>
</g>
<g id="Layer_4">
	<g>
		<g>
			<path class="st3" d="M53.9,243c0.2,1.4,0.5,2.8,0.6,4.2c0.4,3.4,0.8,6.7,0.8,10.1c0,2.7-0.1,5.4-0.5,8.1c-0.4,2.4-1,4.8-2.3,6.9
				c-1,1.7-2.4,2.9-4,4c-2.2,1.5-4.5,2.3-7.1,2.6c-1.9,0.2-3.7-0.1-5.5-0.8c-1.2-0.5-2.3-1.1-3.2-1.8c-2-1.6-3.4-3.6-4.2-6
				c-0.8-2.3-0.9-4.7-0.6-7.1c0.3-2.1,0.9-4,2.2-5.7c1.3-1.7,2.9-3.2,4.6-4.5c3.5-2.7,7.3-4.7,11.2-6.6c2.5-1.2,5.1-2.2,7.7-3.2
				C53.7,243.1,53.8,243,53.9,243z"/>
		</g>
		<g>
			<path class="st3" d="M116.9,288c0.2,1.4,0.5,2.8,0.6,4.2c0.4,3.4,0.8,6.7,0.8,10.1c0,2.7-0.1,5.4-0.5,8.1c-0.4,2.4-1,4.8-2.3,6.9
				c-1,1.7-2.4,2.9-4,4c-2.2,1.5-4.5,2.3-7.1,2.6c-1.9,0.2-3.7-0.1-5.5-0.8c-1.2-0.5-2.3-1.1-3.2-1.8c-2-1.6-3.4-3.6-4.2-6
				c-0.8-2.3-0.9-4.7-0.6-7.1c0.3-2.1,0.9-4,2.2-5.7c1.3-1.7,2.9-3.2,4.6-4.5c3.5-2.7,7.3-4.7,11.2-6.6c2.5-1.2,5.1-2.2,7.7-3.2
				C116.7,288.1,116.8,288,116.9,288z"/>
		</g>
		<g>
			<path class="st3" d="M53.2,342c0.2,1.4,0.5,2.8,0.6,4.2c0.4,3.4,0.8,6.7,0.8,10.1c0,2.7-0.1,5.4-0.5,8.1c-0.4,2.4-1,4.8-2.3,6.9
				c-1,1.7-2.4,2.9-4,4c-2.2,1.5-4.5,2.3-7.1,2.6c-1.9,0.2-3.7-0.1-5.5-0.8c-1.2-0.5-2.3-1.1-3.2-1.8c-2-1.6-3.4-3.6-4.2-6
				c-0.8-2.3-0.9-4.7-0.6-7.1c0.3-2.1,0.9-4,2.2-5.7c1.3-1.7,2.9-3.2,4.6-4.5c3.5-2.7,7.3-4.7,11.2-6.6c2.5-1.2,5.1-2.2,7.7-3.2
				C53,342.1,53.1,342,53.2,342z"/>
		</g>
		<g>
			<path class="st3" d="M180.6,243c0.2,1.4,0.5,2.8,0.6,4.2c0.4,3.4,0.8,6.7,0.8,10.1c0,2.7-0.1,5.4-0.5,8.1c-0.4,2.4-1,4.8-2.3,6.9
				c-1,1.7-2.4,2.9-4,4c-2.2,1.5-4.5,2.3-7.1,2.6c-1.9,0.2-3.7-0.1-5.5-0.8c-1.2-0.5-2.3-1.1-3.2-1.8c-2-1.6-3.4-3.6-4.2-6
				c-0.8-2.3-0.9-4.7-0.6-7.1c0.3-2.1,0.9-4,2.2-5.7c1.3-1.7,2.9-3.2,4.6-4.5c3.5-2.7,7.3-4.7,11.2-6.6c2.5-1.2,5.1-2.2,7.7-3.2
				C180.4,243.1,180.5,243,180.6,243z"/>
		</g>
		<g>
			<path class="st3" d="M243.6,288c0.2,1.4,0.5,2.8,0.6,4.2c0.4,3.4,0.8,6.7,0.8,10.1c0,2.7-0.1,5.4-0.5,8.1c-0.4,2.4-1,4.8-2.3,6.9
				c-1,1.7-2.4,2.9-4,4c-2.2,1.5-4.5,2.3-7.1,2.6c-1.9,0.2-3.7-0.1-5.5-0.8c-1.2-0.5-2.3-1.1-3.2-1.8c-2-1.6-3.4-3.6-4.2-6
				c-0.8-2.3-0.9-4.7-0.6-7.1c0.3-2.1,0.9-4,2.2-5.7c1.3-1.7,2.9-3.2,4.6-4.5c3.5-2.7,7.3-4.7,11.2-6.6c2.5-1.2,5.1-2.2,7.7-3.2
				C243.4,288.1,243.5,288,243.6,288z"/>
		</g>
		<g>
			<path class="st3" d="M179.9,342c0.2,1.4,0.5,2.8,0.6,4.2c0.4,3.4,0.8,6.7,0.8,10.1c0,2.7-0.1,5.4-0.5,8.1c-0.4,2.4-1,4.8-2.3,6.9
				c-1,1.7-2.4,2.9-4,4c-2.2,1.5-4.5,2.3-7.1,2.6c-1.9,0.2-3.7-0.1-5.5-0.8c-1.2-0.5-2.3-1.1-3.2-1.8c-2-1.6-3.4-3.6-4.2-6
				c-0.8-2.3-0.9-4.7-0.6-7.1c0.3-2.1,0.9-4,2.2-5.7c1.3-1.7,2.9-3.2,4.6-4.5c3.5-2.7,7.3-4.7,11.2-6.6c2.5-1.2,5.1-2.2,7.7-3.2
				C179.7,342.1,179.8,342,179.9,342z"/>
		</g>
		<g>
			<path class="st3" d="M305.9,243c0.2,1.4,0.5,2.8,0.6,4.2c0.4,3.4,0.8,6.7,0.8,10.1c0,2.7-0.1,5.4-0.5,8.1c-0.4,2.4-1,4.8-2.3,6.9
				c-1,1.7-2.4,2.9-4,4c-2.2,1.5-4.5,2.3-7.1,2.6c-1.9,0.2-3.7-0.1-5.5-0.8c-1.2-0.5-2.3-1.1-3.2-1.8c-2-1.6-3.4-3.6-4.2-6
				c-0.8-2.3-0.9-4.7-0.6-7.1c0.3-2.1,0.9-4,2.2-5.7c1.3-1.7,2.9-3.2,4.6-4.5c3.5-2.7,7.3-4.7,11.2-6.6c2.5-1.2,5.1-2.2,7.7-3.2
				C305.7,243.1,305.8,243,305.9,243z"/>
		</g>
	</g>
</g>
</svg>
