<?xml version="1.0" encoding="utf-8"?>
<!-- Generator: Adobe Illustrator 22.1.0, SVG Export Plug-In . SVG Version: 6.00 Build 0)  -->
<svg version="1.1" id="Layer_1" xmlns="http://www.w3.org/2000/svg" xmlns:xlink="http://www.w3.org/1999/xlink" x="0px" y="0px"
	 viewBox="0 0 800 153" style="enable-background:new 0 0 800 153;" xml:space="preserve">
<style type="text/css">
	.st0{opacity:0.3;fill:#00A3FF;}
	.st1{fill:#626262;}
	.st2{fill:none;stroke:#00A3FF;stroke-width:3;stroke-miterlimit:10;}
	.st3{fill:#00A3FF;}
</style>
<polygon class="st0" points="0.5,56.8 138.5,49.8 287.5,73.8 419.5,28.8 550.5,43.8 682.5,31.8 804.5,47.8 804.5,154 0.3,154 "/>
<g>
	<path class="st1" d="M-266.4-102.1c-11.5,0-23,0-34.5,0c-1.9,0-3.6-0.5-4.9-1.9c-1.6-1.9-2-4-1-6.3c1-2.3,2.9-3.5,5.4-3.5
		c4.1-0.1,8.2,0,12.4,0c12.9,0,25.8,0,38.7,0c6.4,0,12.7,0,19.1,0c3.1,0,5.6,2.4,5.9,5.4c0.2,3.1-1.9,5.8-4.9,6.2
		c-0.8,0.1-1.7,0.1-2.5,0.1C-244-102.1-255.2-102.1-266.4-102.1C-266.4-102.1-266.4-102.1-266.4-102.1z"/>
	<path class="st1" d="M-266.3-160.6c11.7,0,23.3,0,35,0c2.7,0,5.2,1.8,5.8,4.5c0.7,2.9-0.7,5.6-3.5,6.8c-0.7,0.3-1.6,0.4-2.4,0.4
		c-9.4,0-18.8,0-28.2,0c-13,0-25.9,0-38.9,0c-1.5,0-3,0-4.4-0.3c-2.8-0.6-4.6-3.4-4.3-6.2c0.4-3,2.8-5.2,5.7-5.2
		c7.3,0,14.5,0,21.8,0C-275.3-160.6-270.8-160.6-266.3-160.6C-266.3-160.6-266.3-160.6-266.3-160.6z"/>
	<path class="st1" d="M-266.3-125.5c-11.7,0-23.4,0-35.1,0c-3.1,0-5.6-2.3-5.8-5.3c-0.3-3,1.7-5.7,4.7-6.3c0.9-0.2,1.8-0.1,2.7-0.1
		c12.1,0,24.2,0,36.4,0c10.8,0,21.5,0,32.3,0c3.1,0,5.6,2.3,5.9,5.3c0.3,3-1.7,5.7-4.6,6.3c-0.7,0.2-1.5,0.1-2.2,0.1
		C-243.6-125.5-254.9-125.5-266.3-125.5z"/>
</g>
<polyline class="st2" points="1,57 139,50 288,74 420,29 551,44 683,32 805,48 "/>
<circle class="st3" cx="138.8" cy="50" r="3.8"/>
<circle class="st3" cx="288.3" cy="73.8" r="3.8"/>
<circle class="st3" cx="419.9" cy="28.8" r="3.8"/>
<circle class="st3" cx="550.9" cy="43.8" r="3.8"/>
<circle class="st3" cx="682.9" cy="32.2" r="3.8"/>
</svg>
